<?xml version="1.0" encoding="utf-8"?>
<!-- Generator: Adobe Illustrator 19.2.0, SVG Export Plug-In . SVG Version: 6.00 Build 0)  -->
<svg version="1.1" id="Layer_1" xmlns="http://www.w3.org/2000/svg" xmlns:xlink="http://www.w3.org/1999/xlink" x="0px" y="0px"
	 viewBox="0 0 1800 1800" style="enable-background:new 0 0 1800 1800;" xml:space="preserve">
<style type="text/css">
	.st0{fill:#010101;}
</style>
<path class="st0" d="M371.6,594c-234,234-234.5,614.1-0.6,848.1s615.5,234.8,849.5,0.8c206.7-206.7,228.5-530.1,72.9-760.5
	l186.3-186.3l7.5,101.4l196.4-17.1L1648,159.7l-427-43.3L1202.2,314l114.4,12.5l-190.8,190.8C892.7,364.5,575.9,389.7,371.6,594z
	 M1052.8,1275.2c-142.2,142.2-373.7,142.2-516,0s-142.3-373.7,0-516c142.3-142.3,373.7-142.3,516,0S1195.1,1132.9,1052.8,1275.2z"/>
</svg>
