<?xml version="1.0" encoding="utf-8"?>
<!-- Generator: Adobe Illustrator 19.2.0, SVG Export Plug-In . SVG Version: 6.00 Build 0)  -->
<svg version="1.1" id="Layer_1" xmlns="http://www.w3.org/2000/svg" xmlns:xlink="http://www.w3.org/1999/xlink" x="0px" y="0px"
	 viewBox="0 0 1800 1800" style="enable-background:new 0 0 1800 1800;" xml:space="preserve">
<style type="text/css">
	.st0{fill:#010101;}
</style>
<path class="st0" d="M790.2,1245.8v157.3h-94.7v199h94.7v142.1h236.9V1602h104.2v-199h-104.2v-155.6
	c274.8-53.4,488.7-299.1,488.7-593.3C1515.8,321,1244,50,910.8,50c-333.2,0-603,271-603,604.2
	C307.8,945.2,515.5,1188.8,790.2,1245.8z M910,286.9c202.5,0,367.3,164.8,367.3,367.3c0,202.5-164.8,367.3-367.3,367.3
	c-202.5,0-367.3-164.8-367.3-367.3C542.7,451.6,707.5,286.9,910,286.9z"/>
</svg>
